<?xml version="1.0" encoding="utf-8"?>
<!-- Generator: Adobe Illustrator 25.3.1, SVG Export Plug-In . SVG Version: 6.00 Build 0)  -->
<svg version="1.1" id="Layer_1" xmlns="http://www.w3.org/2000/svg" xmlns:xlink="http://www.w3.org/1999/xlink" x="0px" y="0px"
	 viewBox="0 0 149.2 172.2" style="enable-background:new 0 0 149.2 172.2;" xml:space="preserve">
<style type="text/css">
	.st0{fill:#7B3A7B;}
	.st1{fill:#522752;}
	.st2{fill:none;}
	.st3{enable-background:new    ;}
	.st4{fill:#EDEDE5;}
</style>
<polygon class="st0" points="149.2,129.2 74.6,172.2 0,129.2 0,43.1 74.6,0 149.2,43.1 "/>
<rect x="-25" y="57.4" transform="matrix(0.5 -0.866 0.866 0.5 -37.377 78.8518)" class="st1" width="149.2" height="28.7"/>
<rect x="24.5" y="85.8" transform="matrix(0.5 -0.866 0.866 0.5 -37.3386 136.0383)" class="st1" width="149.2" height="29.1"/>
<rect x="12.1" y="51.1" class="st2" width="125.1" height="70"/>
<g class="st3">
	<path class="st4" d="M17.3,85.1c0-9.4,2.6-17.1,7.9-23.1c5.3-6.2,12.1-9.3,20.4-9.3c7.3,0,13.8,2.6,19.7,7.7c1,0.8,1.4,0.5,1.4-0.9
		v-4.5c0-0.9,0.4-1.3,1.3-1.3c0.9,0,1.4,0.5,1.4,1.3V72c0,0.9-0.4,1.3-1.4,1.3c-0.9,0-1.3-0.5-1.3-1.3v-6.3
		c-1.6-1.9-3.5-3.6-5.7-5.1c-4.9-3.5-10.1-5.2-15.5-5.2c-7.4,0-13.5,2.8-18.4,8.5C22.5,69.5,20,76.6,20,85.1
		c0,8.6,2.5,15.8,7.6,21.3s11.7,8.4,19.9,8.4c4.1,0,8-0.7,11.5-2.1c3.5-1.4,6.6-3.4,9.1-6.1c0.6-0.6,1.2-0.6,1.9,0
		c0.6,0.7,0.6,1.3,0,1.9c-2.9,2.8-6.1,5-9.8,6.6c-3.6,1.6-7.9,2.4-12.7,2.4c-9.1,0-16.4-3-21.9-9.1C20.1,102.2,17.3,94.4,17.3,85.1z
		"/>
	<path class="st4" d="M80.1,113.9h6.3c0.9,0,1.4-0.5,1.4-1.3V57.6c0-0.9-0.5-1.3-1.4-1.3h-6.3c-0.9,0-1.3-0.5-1.3-1.4
		c0-0.9,0.4-1.3,1.3-1.3h42.8c0.9,0,1.3,0.5,1.3,1.3v12.6c0,0.9-0.4,1.3-1.3,1.3s-1.3-0.5-1.3-1.3v-9.9c0-0.9-0.5-1.3-1.4-1.3H91.8
		c-0.9,0-1.4,0.5-1.4,1.3v24.3c0,0.9,0.5,1.4,1.4,1.4H113c0.9,0,1.4-0.5,1.4-1.4v-4.5c0-0.9,0.5-1.3,1.3-1.3c0.9,0,1.4,0.5,1.4,1.3
		v14.4c0,0.9-0.5,1.3-1.4,1.3c-0.9,0-1.3-0.4-1.3-1.3v-4.5c0-0.9-0.5-1.3-1.4-1.3H91.8c-0.9,0-1.4,0.4-1.4,1.3v25.2
		c0,0.9,0.5,1.3,1.4,1.3H99c0.9,0,1.3,0.5,1.3,1.4c0,0.9-0.5,1.3-1.3,1.3H80.1c-0.9,0-1.3-0.5-1.3-1.3
		C78.8,114.3,79.2,113.9,80.1,113.9z"/>
</g>
</svg>
